<?xml version="1.0" standalone="no"?><!DOCTYPE svg PUBLIC "-//W3C//DTD SVG 1.1//EN" "http://www.w3.org/Graphics/SVG/1.1/DTD/svg11.dtd"><svg t="1573784462729" class="icon" viewBox="0 0 1024 1024" version="1.1" xmlns="http://www.w3.org/2000/svg" p-id="6227" xmlns:xlink="http://www.w3.org/1999/xlink" width="200" height="200"><defs><style type="text/css"></style></defs><path d="M547.218026 1022.500024H102.625147c-46.099262 0-66.398937-58.199068-30.299515-86.79861l37.4994-29.799523c21.299659-16.899729 24.399609-47.999231 6.999887-68.998895-37.999391-45.899265-68.498903-99.29841-88.998574-158.897455C-67.572127 400.809981 90.825336 98.514822 373.020816 19.116094c259.495844-72.998831 533.291459 68.898897 621.490047 326.294774C1085.609404 611.006614 944.011671 902.101952 678.615922 994.100479c-66.898929 23.199628-135.297833 33.199468-201.69677 28.69954" fill="#B877AF" p-id="6228"></path><path d="M792.614096 540.507743L544.918063 778.403933c-7.799875 7.49988-18.399705 11.699813-29.499527 11.699813-11.099822 0-21.699652-4.199933-29.399529-11.699813L238.222975 540.507743c-35.199436-33.599462-54.599126-78.198748-54.599125-125.597988 0-47.499239 19.399689-92.098525 54.699124-125.697987 35.299435-33.599462 82.098685-52.099166 131.997886-52.099166 49.899201 0 89.798562 18.499704 125.097996 52.099166l0.099998 0.099998 19.99968 22.599639 19.99968-23.999616 0.099998-0.099998c35.299435-33.599462 75.198796-50.59919 125.097997-50.59919 49.899201 0 96.698451 18.499704 131.997886 52.099165s54.699124 78.198748 54.699124 125.697987c-0.199997 47.299242-19.599686 91.898528-54.799123 125.49799z" fill="#FFFFFF" p-id="6229"></path></svg>